<svg width="92" height="52" viewBox="0 0 92 52" fill="none" xmlns="http://www.w3.org/2000/svg">
<g clip-path="url(#clip0_134_4588)">
<path d="M80.4671 17.7631C80.9381 16.9814 81.5794 16.3 82.371 15.7088C83.1626 15.1176 84.0445 14.6166 85.0165 14.2057C85.9785 13.7949 87.0106 13.4942 88.0928 13.2938C89.1751 13.0934 90.2573 12.9932 91.3395 12.9932H92.0009V19.2962H91.3395C90.117 19.2962 88.8644 19.5467 87.5818 20.0378C86.2991 20.5288 85.1167 21.1701 84.0545 21.9718C82.9923 22.7634 82.1205 23.6552 81.4591 24.6373C80.7978 25.6193 80.4671 26.6013 80.4671 27.5833V38.3556H74.1641V12.2817H80.4671V17.7731V17.7631Z" fill="black"/>
<path d="M12.3873 12.0913C13.4795 12.0913 14.5117 12.2817 15.4937 12.6625C16.4757 13.0433 17.3275 13.5543 18.059 14.1957C18.7905 14.837 19.3717 15.5885 19.7825 16.4603C20.2034 17.3321 20.4038 18.2641 20.4038 19.2561V31.2108C20.4038 32.1828 20.1934 33.1047 19.7825 33.9665C19.3617 34.8383 18.7905 35.5898 18.059 36.2312C17.3275 36.8725 16.4657 37.3835 15.4937 37.7643C14.5117 38.1451 13.4795 38.3355 12.3873 38.3355H7.98819C6.89594 38.3355 5.8638 38.1451 4.88178 37.7643C3.89975 37.3835 3.05801 36.8725 2.33652 36.2312C1.61503 35.5898 1.05387 34.8383 0.633002 33.9665C0.212133 33.0947 0.0117188 32.1828 0.0117188 31.2108V19.2561C0.0117188 18.2641 0.222153 17.3321 0.633002 16.4603C1.05387 15.5885 1.61503 14.837 2.33652 14.1957C3.05801 13.5543 3.89975 13.0433 4.88178 12.6625C5.8638 12.2817 6.89594 12.0913 7.98819 12.0913H12.3873ZM15.4035 20.0277C15.4035 19.5968 15.3133 19.1759 15.1229 18.7851C14.9325 18.3843 14.672 18.0336 14.3413 17.733C14.0106 17.4223 13.6298 17.1918 13.199 17.0215C12.7681 16.8511 12.2971 16.771 11.776 16.771H8.57941C8.05834 16.771 7.58736 16.8511 7.15647 17.0215C6.72558 17.1918 6.3448 17.4223 6.01411 17.733C5.68343 18.0436 5.42289 18.3943 5.2325 18.7851C5.04211 19.186 4.95192 19.5968 4.95192 20.0277V30.4091C4.95192 30.84 5.04211 31.2609 5.2325 31.6717C5.42289 32.0826 5.67341 32.4333 6.01411 32.7239C6.3448 33.0145 6.72558 33.245 7.15647 33.4154C7.58736 33.5857 8.05834 33.6659 8.57941 33.6659H11.776C12.2971 33.6659 12.7681 33.5857 13.199 33.4154C13.6298 33.245 14.0106 33.0245 14.3413 32.7239C14.672 32.4333 14.9325 32.0826 15.1229 31.6717C15.3133 31.2609 15.4035 30.84 15.4035 30.4091V20.0277Z" fill="black"/>
<path d="M34.3517 18.274C33.4699 18.274 32.7484 18.3842 32.1872 18.6047C31.6261 18.8252 31.1952 19.1258 30.8946 19.4965C30.594 19.8673 30.3735 20.3182 30.2633 20.8393C30.143 21.3604 30.0829 21.9316 30.0829 22.5428V38.3455H24.1406V12.4821H30.0829V13.1434C31.2653 12.7025 32.538 12.4821 33.8908 12.4821H36.5362C38.0293 12.4821 39.352 12.7326 40.4944 13.2436C41.6468 13.7547 42.5987 14.4261 43.3603 15.2478C44.1219 16.0795 44.6931 17.0214 45.0839 18.0936C45.4747 19.1659 45.6651 20.2381 45.6651 21.3203V38.3455H39.7228V22.5428C39.7228 21.9316 39.6727 21.3704 39.5725 20.8393C39.4723 20.3182 39.2719 19.8673 38.9913 19.4965C38.7007 19.1258 38.2898 18.8252 37.7487 18.6047C37.2076 18.3842 36.4761 18.274 35.5642 18.274H34.3417H34.3517Z" fill="black"/>
<path d="M71.015 38.4959H64.8623L60.3429 17.3121L55.1622 38.4959H49.0195L55.8236 12.9431H64.9224L71.015 38.4959Z" fill="#437FEC"/>
<path d="M77.4797 7.85255C79.5828 7.85255 81.2876 6.14771 81.2876 4.04468C81.2876 1.94166 79.5828 0.236816 77.4797 0.236816C75.3767 0.236816 73.6719 1.94166 73.6719 4.04468C73.6719 6.14771 75.3767 7.85255 77.4797 7.85255Z" fill="black"/>
<path d="M4.12846 50.22H4.18859C4.3389 49.5487 4.47919 48.8873 4.6295 48.2259C4.77981 47.5646 4.93012 46.8932 5.07041 46.2318H6.23281V51.7632H5.43115V48.1658H5.38105C5.25078 48.767 5.12051 49.3683 4.9702 49.9695C4.82991 50.5708 4.69964 51.162 4.56937 51.7632H3.68755L2.936 48.1758H2.87587V51.7632H2.07422V46.2318H3.23662L4.11844 50.22H4.12846Z" fill="black"/>
<path d="M28.4272 50.8213H31.1829V51.7532H27.375V46.2118H31.1829V47.1437H28.4272V48.5065H31.1829V49.4385H28.4272V50.8113V50.8213Z" fill="black"/>
<path d="M54.8642 48.3261C55.0947 48.3261 55.3051 48.3662 55.5055 48.4564C55.706 48.5466 55.8763 48.6668 56.0166 48.8171C56.1569 48.9675 56.2671 49.1579 56.3473 49.3683C56.4274 49.5787 56.4675 49.8192 56.4675 50.0697C56.4675 50.3102 56.4274 50.5307 56.3573 50.7411C56.2872 50.9516 56.1769 51.1219 56.0467 51.2722C55.9064 51.4225 55.746 51.5428 55.5657 51.6229C55.3853 51.7031 55.1749 51.7532 54.9444 51.7532H52.4192V50.7311H54.6438C54.754 50.7311 54.8542 50.7211 54.9544 50.691C55.0546 50.661 55.1448 50.6209 55.2149 50.5708C55.2851 50.5207 55.3452 50.4505 55.3853 50.3704C55.4254 50.2902 55.4454 50.19 55.4454 50.0798C55.4454 49.8693 55.3753 49.699 55.235 49.5787C55.0947 49.4585 54.9243 49.3984 54.7139 49.3984H54.0525C53.772 49.3984 53.5214 49.3683 53.301 49.3082C53.0705 49.248 52.8801 49.1579 52.7198 49.0276C52.5595 48.8973 52.4392 48.727 52.349 48.5265C52.2588 48.3161 52.2188 48.0756 52.2188 47.785C52.2188 47.5846 52.2588 47.3942 52.329 47.2038C52.3991 47.0134 52.4993 46.8431 52.6196 46.7028C52.7398 46.5625 52.9002 46.4422 53.0705 46.3621C53.2509 46.2719 53.4513 46.2318 53.6617 46.2318H55.9464V47.314H54.0826C53.9724 47.314 53.8722 47.314 53.782 47.3341C53.6918 47.3441 53.6116 47.3742 53.5415 47.4042C53.4713 47.4443 53.4212 47.4944 53.3812 47.5646C53.3411 47.6347 53.321 47.7349 53.321 47.8451C53.321 47.9854 53.3711 48.0957 53.4613 48.1858C53.5515 48.276 53.6818 48.3261 53.8321 48.3261H54.8342H54.8642Z" fill="black"/>
<path d="M79.9958 50.9115H78.5027L78.3023 51.7532H77.3203L78.7432 46.2118H79.8054L81.1683 51.7532H80.1962L79.9958 50.9115ZM78.7032 50.0898H79.8054L79.2944 47.8251H79.2343L78.6931 50.0898H78.7032Z" fill="black"/>
</g>
<defs>
<clipPath id="clip0_134_4588">
<rect width="92" height="51.5264" fill="white" transform="translate(0 0.236816)"/>
</clipPath>
</defs>
</svg>
